<mxfile host="app.diagrams.net" agent="Mozilla/5.0 (Windows NT 10.0; Win64; x64) AppleWebKit/537.36 (KHTML, like Gecko) Chrome/135.0.0.0 Safari/537.36" version="26.2.14">
  <diagram name="페이지-1" id="lal4Vt5fozXLqHP4HIll">
    <mxGraphModel dx="1426" dy="1920" grid="1" gridSize="10" guides="1" tooltips="1" connect="1" arrows="1" fold="1" page="1" pageScale="1" pageWidth="827" pageHeight="1169" math="0" shadow="0">
      <root>
        <mxCell id="0" />
        <mxCell id="1" parent="0" />
        <mxCell id="hOHUTFET84yPkDiCCkdD-1" value="&lt;font style=&quot;font-size: 20px;&quot;&gt;Server&lt;/font&gt;" style="swimlane;whiteSpace=wrap;html=1;" vertex="1" parent="1">
          <mxGeometry x="270" y="-110" width="332" height="640" as="geometry">
            <mxRectangle x="310" y="140" width="140" height="30" as="alternateBounds" />
          </mxGeometry>
        </mxCell>
        <mxCell id="hOHUTFET84yPkDiCCkdD-14" value="2.결재 처리 (승인/반려&lt;div&gt;&amp;nbsp;-&amp;gt; 상태 업데이트)&lt;/div&gt;" style="whiteSpace=wrap;html=1;fillColor=#dae8fc;strokeColor=#6c8ebf;" vertex="1" parent="hOHUTFET84yPkDiCCkdD-1">
          <mxGeometry x="102" y="130" width="128" height="80" as="geometry" />
        </mxCell>
        <mxCell id="hOHUTFET84yPkDiCCkdD-16" value="3.제출문서 조회(기안자)" style="whiteSpace=wrap;html=1;fillColor=#dae8fc;strokeColor=#6c8ebf;" vertex="1" parent="hOHUTFET84yPkDiCCkdD-1">
          <mxGeometry x="102" y="230" width="128" height="80" as="geometry" />
        </mxCell>
        <mxCell id="hOHUTFET84yPkDiCCkdD-17" value="4.결재현황 조회(결재자)" style="whiteSpace=wrap;html=1;fillColor=#dae8fc;strokeColor=#6c8ebf;" vertex="1" parent="hOHUTFET84yPkDiCCkdD-1">
          <mxGeometry x="102" y="330" width="128" height="80" as="geometry" />
        </mxCell>
        <mxCell id="hOHUTFET84yPkDiCCkdD-13" value="1.문서 등록(결재 요청)" style="whiteSpace=wrap;html=1;fillColor=#dae8fc;strokeColor=#6c8ebf;" vertex="1" parent="hOHUTFET84yPkDiCCkdD-1">
          <mxGeometry x="100" y="50" width="130" height="60" as="geometry" />
        </mxCell>
        <mxCell id="hOHUTFET84yPkDiCCkdD-18" value="5.상세보기(문서 및 결재 상태)" style="whiteSpace=wrap;html=1;fillColor=#dae8fc;strokeColor=#6c8ebf;" vertex="1" parent="hOHUTFET84yPkDiCCkdD-1">
          <mxGeometry x="102" y="430" width="128" height="80" as="geometry" />
        </mxCell>
        <mxCell id="hOHUTFET84yPkDiCCkdD-19" value="6.기안 회수(회수 상태&amp;nbsp;&lt;div&gt;업데이트 -&amp;gt; 재기안)&lt;/div&gt;" style="whiteSpace=wrap;html=1;fillColor=#dae8fc;strokeColor=#6c8ebf;" vertex="1" parent="hOHUTFET84yPkDiCCkdD-1">
          <mxGeometry x="102" y="530" width="128" height="80" as="geometry" />
        </mxCell>
        <mxCell id="hOHUTFET84yPkDiCCkdD-31" value="" style="strokeWidth=2;html=1;shape=mxgraph.flowchart.annotation_1;align=left;pointerEvents=1;" vertex="1" parent="hOHUTFET84yPkDiCCkdD-1">
          <mxGeometry x="30" y="70" width="70" height="500" as="geometry" />
        </mxCell>
        <mxCell id="hOHUTFET84yPkDiCCkdD-52" value="" style="strokeWidth=2;html=1;shape=mxgraph.flowchart.annotation_1;align=left;pointerEvents=1;direction=west;" vertex="1" parent="hOHUTFET84yPkDiCCkdD-1">
          <mxGeometry x="230" y="70" width="70" height="500" as="geometry" />
        </mxCell>
        <mxCell id="hOHUTFET84yPkDiCCkdD-57" value="" style="line;strokeWidth=2;html=1;" vertex="1" parent="hOHUTFET84yPkDiCCkdD-1">
          <mxGeometry x="30" y="160" width="70" height="10" as="geometry" />
        </mxCell>
        <mxCell id="hOHUTFET84yPkDiCCkdD-58" value="" style="line;strokeWidth=2;html=1;" vertex="1" parent="hOHUTFET84yPkDiCCkdD-1">
          <mxGeometry x="32" y="265" width="70" height="10" as="geometry" />
        </mxCell>
        <mxCell id="hOHUTFET84yPkDiCCkdD-59" value="" style="line;strokeWidth=2;html=1;" vertex="1" parent="hOHUTFET84yPkDiCCkdD-1">
          <mxGeometry x="32" y="365" width="70" height="10" as="geometry" />
        </mxCell>
        <mxCell id="hOHUTFET84yPkDiCCkdD-60" value="" style="line;strokeWidth=2;html=1;" vertex="1" parent="hOHUTFET84yPkDiCCkdD-1">
          <mxGeometry x="32" y="460" width="70" height="10" as="geometry" />
        </mxCell>
        <mxCell id="hOHUTFET84yPkDiCCkdD-61" value="" style="line;strokeWidth=2;html=1;" vertex="1" parent="hOHUTFET84yPkDiCCkdD-1">
          <mxGeometry x="230" y="160" width="70" height="10" as="geometry" />
        </mxCell>
        <mxCell id="hOHUTFET84yPkDiCCkdD-62" value="" style="line;strokeWidth=2;html=1;" vertex="1" parent="hOHUTFET84yPkDiCCkdD-1">
          <mxGeometry x="230" y="265" width="70" height="10" as="geometry" />
        </mxCell>
        <mxCell id="hOHUTFET84yPkDiCCkdD-63" value="" style="line;strokeWidth=2;html=1;" vertex="1" parent="hOHUTFET84yPkDiCCkdD-1">
          <mxGeometry x="230" y="365" width="70" height="10" as="geometry" />
        </mxCell>
        <mxCell id="hOHUTFET84yPkDiCCkdD-64" value="" style="line;strokeWidth=2;html=1;" vertex="1" parent="hOHUTFET84yPkDiCCkdD-1">
          <mxGeometry x="230" y="460" width="70" height="10" as="geometry" />
        </mxCell>
        <mxCell id="hOHUTFET84yPkDiCCkdD-5" value="DB" style="shape=datastore;whiteSpace=wrap;html=1;fillColor=#d5e8d4;strokeColor=#82b366;" vertex="1" parent="1">
          <mxGeometry x="700" y="170" width="80" height="80" as="geometry" />
        </mxCell>
        <mxCell id="hOHUTFET84yPkDiCCkdD-7" value="Client" style="html=1;whiteSpace=wrap;fillColor=#fff2cc;strokeColor=#d6b656;" vertex="1" parent="1">
          <mxGeometry x="20" y="180" width="130" height="60" as="geometry" />
        </mxCell>
        <mxCell id="hOHUTFET84yPkDiCCkdD-55" value="" style="line;strokeWidth=2;html=1;" vertex="1" parent="1">
          <mxGeometry x="150" y="205" width="150" height="10" as="geometry" />
        </mxCell>
        <mxCell id="hOHUTFET84yPkDiCCkdD-56" value="" style="line;strokeWidth=2;html=1;" vertex="1" parent="1">
          <mxGeometry x="570" y="205" width="130" height="10" as="geometry" />
        </mxCell>
      </root>
    </mxGraphModel>
  </diagram>
</mxfile>
